<?xml version="1.0" encoding="UTF-8"?>
<svg id="Warstwa_2" data-name="Warstwa 2" xmlns="http://www.w3.org/2000/svg" viewBox="0 0 393.35 135.69">
  <defs>
    <style>
      .cls-1 {
        fill: #fff;
      }
    </style>
  </defs>
  <g id="Warstwa_1-2" data-name="Warstwa 1">
    <g>
      <path class="cls-1" d="M147.66,115.47h-12.68V38.84c0-2.7.52-4.99,1.57-6.86,1.05-1.87,2.48-3.29,4.31-4.25,1.83-.96,3.84-1.44,6.02-1.44,2.7,0,4.99.52,6.86,1.57s3.42,2.75,4.64,5.1l36.87,68.91c.26.61.46,1.05.59,1.31.13.26.41.39.85.39.26,0,.44-.09.52-.26.09-.17.13-.44.13-.79V27.86h12.68v76.76c0,2.61-.55,4.84-1.64,6.67-1.09,1.83-2.53,3.25-4.31,4.25-1.79,1-3.68,1.5-5.69,1.5-2.44,0-4.69-.55-6.73-1.63-2.05-1.09-3.73-2.81-5.03-5.16l-36.74-69.04c-.18-.52-.33-.91-.46-1.18-.13-.26-.37-.39-.72-.39s-.61.13-.78.39c-.18.26-.26.65-.26,1.18v74.27Z"/>
      <path class="cls-1" d="M261.68,117.03c-6.45,0-12.25-1.53-17.39-4.58-5.14-3.05-9.24-7.13-12.29-12.23s-4.58-10.74-4.58-16.93,1.53-11.81,4.58-16.87c3.05-5.05,7.15-9.09,12.29-12.09,5.14-3.01,10.94-4.51,17.39-4.51s12.25,1.5,17.39,4.51c5.14,3.01,9.2,7.06,12.16,12.16,2.96,5.1,4.45,10.7,4.45,16.8s-1.48,11.83-4.45,16.93c-2.96,5.1-7.04,9.18-12.23,12.23-5.19,3.05-10.96,4.58-17.33,4.58ZM261.68,104.74c4.01,0,7.6-.96,10.79-2.88,3.18-1.92,5.69-4.51,7.52-7.78,1.83-3.27,2.75-6.82,2.75-10.66s-.92-7.5-2.75-10.72c-1.83-3.22-4.34-5.82-7.52-7.78-3.18-1.96-6.78-2.94-10.79-2.94s-7.61.98-10.79,2.94c-3.18,1.96-5.73,4.56-7.65,7.78-1.92,3.23-2.88,6.8-2.88,10.72s.96,7.39,2.88,10.66c1.92,3.27,4.47,5.86,7.65,7.78,3.18,1.92,6.78,2.88,10.79,2.88Z"/>
      <path class="cls-1" d="M323.14,115.47h-12.94v-38.18c0-5.23.98-9.89,2.94-13.99,1.96-4.1,4.84-7.32,8.63-9.68s8.48-3.53,14.06-3.53c2.09,0,4.12.2,6.08.59,1.96.39,3.77.98,5.43,1.76v12.81c-1.57-.96-3.25-1.65-5.04-2.09-1.79-.44-3.55-.65-5.29-.65-4.27,0-7.65,1.37-10.13,4.12-2.48,2.75-3.73,6.47-3.73,11.18v37.66Z"/>
      <path class="cls-1" d="M369.16,115.47h-12.94v-38.18c0-5.23.98-9.89,2.94-13.99,1.96-4.1,4.84-7.32,8.63-9.68s8.48-3.53,14.06-3.53c2.09,0,4.12.2,6.08.59,1.96.39,3.77.98,5.43,1.76v12.81c-1.57-.96-3.25-1.65-5.04-2.09-1.79-.44-3.55-.65-5.29-.65-4.27,0-7.65,1.37-10.13,4.12-2.48,2.75-3.73,6.47-3.73,11.18v37.66Z"/>
    </g>
    <path class="cls-1" d="M123.63,77.47s0,0,0-.01c0,0,0,0,0,.01h0Z"/>
    <g>
      <polygon class="cls-1" points="20.76 71.66 20.76 71.25 20.61 71.66 20.76 71.66"/>
      <polygon class="cls-1" points="54.32 135.69 82.03 94.87 54.32 94.87 54.32 135.69"/>
      <path class="cls-1" d="M59.15,12.9l1.1,2.77c15.55,1.85,30.63,10.3,41.27,25.32-10.47-16.41-26.02-25.75-42.37-28.09Z"/>
      <path class="cls-1" d="M81.73,78.91s0-.63,0-.63c-6.95-.14-17.25-.22-27.71-.22V0l-4.92,12.38C30.94,12.94,12.87,21.95.57,39.42c-2.32,3.46,2.99,6.71,5.05,3.14,10.38-16.25,25.96-25.2,42.18-26.94l-24.13,60.69-.78,1.97h0v.63c4.9,2.22,9.81,3.38,14.71,4.17,14.87,2.14,30.27,1.7,44.13-4.17Z"/>
    </g>
  </g>
</svg>